<svg id="logo" xmlns="http://www.w3.org/2000/svg" xmlns:xlink="http://www.w3.org/1999/xlink" viewBox="0 0 49 30">
  <defs>
    <clipPath id="clip-path">
      <rect id="사각형_1" data-name="사각형 1" width="49" height="30" fill="none"/>
    </clipPath>
  </defs>
  <g id="logo-2" data-name="logo" clip-path="url(#clip-path)">
    <path id="패스_1" data-name="패스 1" d="M8.239,18.169a8.1,8.1,0,1,0,0,16.2,8.1,8.1,0,1,0,0-16.2m0,12.149a4.05,4.05,0,1,1,4.12-4.05,4.085,4.085,0,0,1-4.12,4.05" transform="translate(0 -12.094)" fill="#191a1a"/>
    <path id="패스_2" data-name="패스 2" d="M2.06,0A2.042,2.042,0,0,0,0,2.025V14.174A2.043,2.043,0,0,0,2.06,16.2a2.043,2.043,0,0,0,2.06-2.025V2.025A2.042,2.042,0,0,0,2.06,0" transform="translate(0 0)" fill="#191a1a"/>
    <path id="패스_3" data-name="패스 3" d="M52.415,18.169a2.042,2.042,0,0,0-2.06,2.025V32.343a4.085,4.085,0,0,1-4.12,4.05,2.025,2.025,0,1,0,0,4.05,8.17,8.17,0,0,0,8.239-8.1V20.194a2.042,2.042,0,0,0-2.06-2.025" transform="translate(-29.152 -12.094)" fill="#191a1a"/>
    <path id="패스_4" data-name="패스 4" d="M64.4,4.05h0a2.042,2.042,0,0,1-2.06-2.025,2.06,2.06,0,0,1,4.119,0A2.042,2.042,0,0,1,64.4,4.05" transform="translate(-41.142 0)" fill="#d5539e"/>
    <path id="패스_5" data-name="패스 5" d="M89.438,4.05h0a2.042,2.042,0,0,1-2.06-2.025,2.06,2.06,0,0,1,4.119,0,2.042,2.042,0,0,1-2.06,2.025" transform="translate(-57.661 0)" fill="#f07136"/>
    <path id="패스_6" data-name="패스 6" d="M89.438,18.169a2.042,2.042,0,0,0-2.06,2.025V32.343a2.06,2.06,0,0,0,4.119,0V20.194a2.042,2.042,0,0,0-2.06-2.025" transform="translate(-57.661 -12.094)" fill="#191a1a"/>
    <path id="패스_7" data-name="패스 7" d="M119.679,18.224a4.085,4.085,0,0,1-4.12-4.05V2.025h0a2.06,2.06,0,0,0-4.119,0h0V14.174a8.17,8.17,0,0,0,8.239,8.1,2.025,2.025,0,1,0,0-4.05" transform="translate(-73.54 0)" fill="#191a1a"/>
    <path id="패스_8" data-name="패스 8" d="M119.679,18.169H113.5a2.025,2.025,0,1,0,0,4.05h6.179a2.025,2.025,0,1,0,0-4.05" transform="translate(-73.54 -12.094)" fill="#191a1a"/>
  </g>
</svg>
